<svg xmlns="http://www.w3.org/2000/svg" version="1.1" style="" viewBox="52.88 93.82 200.95 42.3"><path fill="#ffffff" d="M52.88,136.12l29.34,0l0-3.06l-25.62,0l0-39.06l-3.72,0l0,42.12z M89.4104,136.06l3.78,0l0-42.18l-3.78,0l0,42.18z M112.2008,98.38l22.62,0l0-4.56l-22.62,0q-4.44,0-7.44,3.48q-3.06,3.54-3.06,8.58q0,4.56,3.06,7.92q3,3.42,7.44,3.42l6,0l6.12,0q2.7,0,4.8,2.28q1.98,2.4,1.98,5.22q0,3.36-1.95,5.46t-4.83,2.1l-22.62,0l0,3.72l22.62,0q4.5,0,7.5-3.12t3-8.16q0-4.56-3-7.92q-3.06-3.36-7.5-3.36l-6.12,0l-6,0q-2.76,0-4.74-2.4q-2.04-2.22-2.04-5.16q0-3.36,1.95-5.43t4.83-2.07z M174.1112,94l-32.52,0l0,3.66l14.76,0l0,38.46l3.72,0l0-38.46l14.04,0l0-3.66z M185.1416,124.48q0-2.88,2.04-5.22q2.04-2.46,4.92-2.46l0.78,0l11.22,0l0-3.72l-11.22,0l-0.78,0q-3.06-0.6-5.01-2.64t-1.95-4.86q0-3.54,2.07-5.61t5.67-2.07l20.4,0l0-3.78l-20.4,0q-4.62,0-8.04,3.42q-3.42,3.3-3.42,8.04q0,3,1.14,5.46t3.36,3.54q-2.22,1.62-3.36,4.26t-1.14,5.64q0,4.68,3.42,7.98q3.48,3.48,8.04,3.48l20.4,0l0-3.96l-20.4,0q-3.6,0-5.67-2.04t-2.07-5.46z M220.832,136l3.72,0l0-25.44q0-5.04,3.84-9q3.84-3.84,8.88-3.84t9,3.84q3.84,3.96,3.84,9l0,25.44l3.72,0l0-25.44q0-6.84-4.86-11.7t-11.7-4.86q-6.72,0-11.58,4.86t-4.86,11.7l0,25.44z"/><path fill="#" d=""/></svg>